<mxfile host="app.diagrams.net" modified="2020-06-28T03:22:12.463Z" agent="5.0 (Macintosh; Intel Mac OS X 10_15) AppleWebKit/605.1.15 (KHTML, like Gecko) Version/13.0.2 Safari/605.1.15" etag="pWgRhLpQEaVB01ZMCoNo" version="13.3.5" type="github">
  <diagram id="fmicv64Waa0_CLUMgpLy" name="Page-1">
    <mxGraphModel dx="946" dy="662" grid="1" gridSize="10" guides="1" tooltips="1" connect="1" arrows="1" fold="1" page="1" pageScale="1" pageWidth="827" pageHeight="1169" math="0" shadow="0">
      <root>
        <mxCell id="0" />
        <mxCell id="1" parent="0" />
        <mxCell id="OmshSU1CjE6N8JBvB5iM-14" value="" style="edgeStyle=entityRelationEdgeStyle;fontSize=12;html=1;endArrow=ERmany;startArrow=ERmany;" parent="1" source="OmshSU1CjE6N8JBvB5iM-3" target="OmshSU1CjE6N8JBvB5iM-11" edge="1">
          <mxGeometry width="100" height="100" relative="1" as="geometry">
            <mxPoint x="650" y="565" as="sourcePoint" />
            <mxPoint x="610" y="845" as="targetPoint" />
          </mxGeometry>
        </mxCell>
        <mxCell id="OmshSU1CjE6N8JBvB5iM-15" value="Departs/Arrive at" style="edgeLabel;html=1;align=center;verticalAlign=middle;resizable=0;points=[];" parent="OmshSU1CjE6N8JBvB5iM-14" vertex="1" connectable="0">
          <mxGeometry x="0.0703" y="-2" relative="1" as="geometry">
            <mxPoint as="offset" />
          </mxGeometry>
        </mxCell>
        <mxCell id="OmshSU1CjE6N8JBvB5iM-23" value="" style="edgeStyle=entityRelationEdgeStyle;fontSize=12;html=1;endArrow=ERmany;startArrow=ERone;exitX=1.016;exitY=0.409;exitDx=0;exitDy=0;exitPerimeter=0;entryX=0;entryY=0.25;entryDx=0;entryDy=0;startFill=0;" parent="1" source="OmshSU1CjE6N8JBvB5iM-5" target="OmshSU1CjE6N8JBvB5iM-18" edge="1">
          <mxGeometry width="100" height="100" relative="1" as="geometry">
            <mxPoint x="230" y="470" as="sourcePoint" />
            <mxPoint x="330" y="370" as="targetPoint" />
          </mxGeometry>
        </mxCell>
        <mxCell id="OmshSU1CjE6N8JBvB5iM-24" value="Purchases" style="edgeLabel;html=1;align=center;verticalAlign=middle;resizable=0;points=[];" parent="OmshSU1CjE6N8JBvB5iM-23" vertex="1" connectable="0">
          <mxGeometry x="-0.0313" y="1" relative="1" as="geometry">
            <mxPoint as="offset" />
          </mxGeometry>
        </mxCell>
        <mxCell id="OmshSU1CjE6N8JBvB5iM-25" value="" style="edgeStyle=entityRelationEdgeStyle;fontSize=12;html=1;endArrow=ERone;startArrow=ERmany;exitX=1;exitY=0.25;exitDx=0;exitDy=0;entryX=0;entryY=0.25;entryDx=0;entryDy=0;endFill=0;" parent="1" source="OmshSU1CjE6N8JBvB5iM-18" target="OmshSU1CjE6N8JBvB5iM-3" edge="1">
          <mxGeometry width="100" height="100" relative="1" as="geometry">
            <mxPoint x="470" y="490" as="sourcePoint" />
            <mxPoint x="570" y="390" as="targetPoint" />
          </mxGeometry>
        </mxCell>
        <mxCell id="OmshSU1CjE6N8JBvB5iM-26" value="issued for" style="edgeLabel;html=1;align=center;verticalAlign=middle;resizable=0;points=[];" parent="OmshSU1CjE6N8JBvB5iM-25" vertex="1" connectable="0">
          <mxGeometry x="-0.1606" y="2" relative="1" as="geometry">
            <mxPoint y="1" as="offset" />
          </mxGeometry>
        </mxCell>
        <mxCell id="OmshSU1CjE6N8JBvB5iM-34" value="" style="edgeStyle=entityRelationEdgeStyle;fontSize=12;html=1;endArrow=ERoneToMany;exitX=1;exitY=0.578;exitDx=0;exitDy=0;exitPerimeter=0;" parent="1" source="OmshSU1CjE6N8JBvB5iM-29" target="OmshSU1CjE6N8JBvB5iM-3" edge="1">
          <mxGeometry width="100" height="100" relative="1" as="geometry">
            <mxPoint x="660" y="650" as="sourcePoint" />
            <mxPoint x="820" y="530" as="targetPoint" />
          </mxGeometry>
        </mxCell>
        <mxCell id="OmshSU1CjE6N8JBvB5iM-37" value="" style="edgeStyle=entityRelationEdgeStyle;fontSize=12;html=1;endArrow=ERoneToMany;entryX=0;entryY=0.25;entryDx=0;entryDy=0;exitX=1;exitY=0.25;exitDx=0;exitDy=0;" parent="1" source="OmshSU1CjE6N8JBvB5iM-36" target="OmshSU1CjE6N8JBvB5iM-17" edge="1">
          <mxGeometry width="100" height="100" relative="1" as="geometry">
            <mxPoint x="210" y="330" as="sourcePoint" />
            <mxPoint x="310" y="230" as="targetPoint" />
          </mxGeometry>
        </mxCell>
        <mxCell id="OmshSU1CjE6N8JBvB5iM-17" value="Ticket" style="swimlane;childLayout=stackLayout;horizontal=1;startSize=30;horizontalStack=0;rounded=1;fontSize=14;fontStyle=0;strokeWidth=2;resizeParent=0;resizeLast=1;shadow=0;dashed=0;align=center;" parent="1" vertex="1">
          <mxGeometry x="330" y="310" width="160" height="120" as="geometry" />
        </mxCell>
        <mxCell id="OmshSU1CjE6N8JBvB5iM-18" value="TicketNumber(String)&#xa;price(float)&#xa;ConfirmationNumber" style="align=left;strokeColor=none;fillColor=none;spacingLeft=4;fontSize=12;verticalAlign=top;resizable=0;rotatable=0;part=1;" parent="OmshSU1CjE6N8JBvB5iM-17" vertex="1">
          <mxGeometry y="30" width="160" height="90" as="geometry" />
        </mxCell>
        <mxCell id="OmshSU1CjE6N8JBvB5iM-35" value="Flight Class" style="swimlane;childLayout=stackLayout;horizontal=1;startSize=30;horizontalStack=0;rounded=1;fontSize=14;fontStyle=0;strokeWidth=2;resizeParent=0;resizeLast=1;shadow=0;dashed=0;align=center;" parent="1" vertex="1">
          <mxGeometry x="70" y="300" width="160" height="120" as="geometry" />
        </mxCell>
        <mxCell id="OmshSU1CjE6N8JBvB5iM-36" value="Name" style="align=left;strokeColor=none;fillColor=none;spacingLeft=4;fontSize=12;verticalAlign=top;resizable=0;rotatable=0;part=1;" parent="OmshSU1CjE6N8JBvB5iM-35" vertex="1">
          <mxGeometry y="30" width="160" height="90" as="geometry" />
        </mxCell>
        <mxCell id="OmshSU1CjE6N8JBvB5iM-4" value="Passenger" style="swimlane;childLayout=stackLayout;horizontal=1;startSize=30;horizontalStack=0;rounded=1;fontSize=14;fontStyle=0;strokeWidth=2;resizeParent=0;resizeLast=1;shadow=0;dashed=0;align=center;" parent="1" vertex="1">
          <mxGeometry x="60" y="480" width="150" height="100" as="geometry" />
        </mxCell>
        <mxCell id="OmshSU1CjE6N8JBvB5iM-5" value="FirstName&#xa;LastName" style="align=left;strokeColor=none;fillColor=none;spacingLeft=4;fontSize=12;verticalAlign=top;resizable=0;rotatable=0;part=1;" parent="OmshSU1CjE6N8JBvB5iM-4" vertex="1">
          <mxGeometry y="30" width="150" height="70" as="geometry" />
        </mxCell>
        <mxCell id="OmshSU1CjE6N8JBvB5iM-2" value="Flight" style="swimlane;childLayout=stackLayout;horizontal=1;startSize=30;horizontalStack=0;rounded=1;fontSize=14;fontStyle=0;strokeWidth=2;resizeParent=0;resizeLast=1;shadow=0;dashed=0;align=center;" parent="1" vertex="1">
          <mxGeometry x="560" y="430" width="190" height="150" as="geometry" />
        </mxCell>
        <mxCell id="OmshSU1CjE6N8JBvB5iM-3" value="Number(String)&#xa;DepartureDatetime(DateTime)&#xa;ArrivalDatetime(DateTime)&#xa;Duration(integer)&#xa;DistanceInMiles(integer)&#xa;Airline(String)&#xa;DepartureAirport(integer)&#xa;ArrivalAirport(integer)&#xa;" style="align=left;strokeColor=none;fillColor=none;spacingLeft=4;fontSize=12;verticalAlign=top;resizable=0;rotatable=0;part=1;" parent="OmshSU1CjE6N8JBvB5iM-2" vertex="1">
          <mxGeometry y="30" width="190" height="120" as="geometry" />
        </mxCell>
        <mxCell id="OmshSU1CjE6N8JBvB5iM-10" value="Airport" style="swimlane;childLayout=stackLayout;horizontal=1;startSize=30;horizontalStack=0;rounded=1;fontSize=14;fontStyle=0;strokeWidth=2;resizeParent=0;resizeLast=1;shadow=0;dashed=0;align=center;" parent="1" vertex="1">
          <mxGeometry x="290" y="540" width="160" height="120" as="geometry" />
        </mxCell>
        <mxCell id="OmshSU1CjE6N8JBvB5iM-11" value="IATACode(String)&#xa;Name(String)&#xa;City(String)&#xa;State(String)" style="align=left;strokeColor=none;fillColor=none;spacingLeft=4;fontSize=12;verticalAlign=top;resizable=0;rotatable=0;part=1;" parent="OmshSU1CjE6N8JBvB5iM-10" vertex="1">
          <mxGeometry y="30" width="160" height="90" as="geometry" />
        </mxCell>
        <mxCell id="OmshSU1CjE6N8JBvB5iM-28" value="Airline" style="swimlane;childLayout=stackLayout;horizontal=1;startSize=30;horizontalStack=0;rounded=1;fontSize=14;fontStyle=0;strokeWidth=2;resizeParent=0;resizeLast=1;shadow=0;dashed=0;align=center;" parent="1" vertex="1">
          <mxGeometry x="440" y="690" width="150" height="110" as="geometry" />
        </mxCell>
        <mxCell id="OmshSU1CjE6N8JBvB5iM-29" value="Number(String)" style="align=left;strokeColor=none;fillColor=none;spacingLeft=4;fontSize=12;verticalAlign=top;resizable=0;rotatable=0;part=1;" parent="OmshSU1CjE6N8JBvB5iM-28" vertex="1">
          <mxGeometry y="30" width="150" height="80" as="geometry" />
        </mxCell>
      </root>
    </mxGraphModel>
  </diagram>
</mxfile>
